<svg class="trash" width="20px" height="20px" viewBox="0 0 20 20" version="1.1" xmlns="http://www.w3.org/2000/svg" xmlns:xlink="http://www.w3.org/1999/xlink"> <g stroke="none" stroke-width="1" fill-rule="evenodd"> <g id="trash"> <path d="M12,3.5 C12,2.4 11.1,1.5 10,1.5 C8.9,1.5 8,2.4 8,3.5 L5.5,3.5 C4.68,3.5 4,4.18 4,5 L4,7 C4,7.28 4.22,7.5 4.5,7.5 L15.5,7.5 C15.78,7.5 16,7.28 16,7 L16,5 C16,4.18 15.32,3.5 14.5,3.5 L12,3.5 Z M10,2.5 C10.56,2.5 11,2.94 11,3.5 L9,3.5 C9,2.94 9.44,2.5 10,2.5 L10,2.5 Z M15,6.5 L5,6.5 L5,5 C5,4.72 5.22,4.5 5.5,4.5 L14.5,4.5 C14.78,4.5 15,4.72 15,5 L15,6.5 Z M14.5,8.5 C14.22,8.5 14,8.72 14,9 L14,16 C14,16.28 13.78,16.5 13.5,16.5 L6.5,16.5 C6.22,16.5 6,16.28 6,16 L6,9 C6,8.72 5.78,8.5 5.5,8.5 C5.22,8.5 5,8.72 5,9 L5,16 C5,16.82 5.68,17.5 6.5,17.5 L13.5,17.5 C14.32,17.5 15,16.82 15,16 L15,9 C15,8.72 14.78,8.5 14.5,8.5 L14.5,8.5 Z M9,9 C9,8.72 8.78,8.5 8.5,8.5 C8.22,8.5 8,8.72 8,9 L8,15 C8,15.28 8.22,15.5 8.5,15.5 C8.78,15.5 9,15.28 9,15 L9,9 Z M12,9 C12,8.72 11.78,8.5 11.5,8.5 C11.22,8.5 11,8.72 11,9 L11,15 C11,15.28 11.22,15.5 11.5,15.5 C11.78,15.5 12,15.28 12,15 L12,9 Z" id="j"></path> </g> </g> </svg>