<svg class="close-right" width="20px" height="20px" viewBox="0 0 20 20" version="1.1" xmlns="http://www.w3.org/2000/svg" xmlns:xlink="http://www.w3.org/1999/xlink"> <g stroke="none" stroke-width="1" fill-rule="evenodd"> <g id="close-right"> <path d="M4.5,18 C3.12,18 2,16.88 2,15.5 L2,4.5 C2,3.12 3.12,2 4.5,2 L15.5,2 C16.88,2 18,3.12 18,4.5 L18,15.5 C18,16.88 16.88,18 15.5,18 L4.5,18 Z M4.5,3 C3.68,3 3,3.68 3,4.5 L3,15.5 C3,16.32 3.68,17 4.5,17 L15.5,17 C16.32,17 17,16.32 17,15.5 L17,4.5 C17,3.68 16.32,3 15.5,3 L4.5,3 Z M7.5,15 C7.38,15 7.24,14.96 7.14,14.86 C6.96,14.66 6.96,14.34 7.14,14.14 L11.3,10 L7.14,5.86 C6.96,5.66 6.96,5.34 7.14,5.14 C7.34,4.96 7.66,4.96 7.86,5.14 L12.36,9.64 C12.54,9.84 12.54,10.16 12.36,10.36 L7.86,14.86 C7.76,14.96 7.62,15 7.5,15 L7.5,15 Z" id="i"></path> </g> </g> </svg>