<svg width="20px" height="20px" viewBox="0 0 20 20" version="1.1" xmlns="http://www.w3.org/2000/svg" xmlns:xlink="http://www.w3.org/1999/xlink" xml:space="preserve" style="fill-rule:evenodd;clip-rule:evenodd;stroke-linejoin:round;stroke-miterlimit:1.41421;stroke:rgba(0,0,0,0.35)"> <g> <path d="M8.489,15c-0.132,0 -0.259,-0.052 -0.354,-0.146c-1.485,-1.486 -3.134,-2.808 -4.904,-3.932c-0.232,-0.148 -0.302,-0.457 -0.153,-0.691c0.147,-0.232 0.456,-0.299 0.69,-0.153c1.652,1.049 3.202,2.266 4.618,3.621c3.242,-5.361 6.486,-9.443 10.767,-13.559c0.198,-0.192 0.517,-0.185 0.707,0.013c0.192,0.2 0.186,0.516 -0.014,0.707c-4.356,4.189 -7.625,8.344 -10.927,13.896c-0.079,0.133 -0.215,0.221 -0.368,0.24c-0.021,0.003 -0.041,0.004 -0.062,0.004" style="fill-rule:nonzero;"></path> <path d="M15.5,20l-13,0c-1.379,0 -2.5,-1.121 -2.5,-2.5l0,-13c0,-1.379 1.121,-2.5 2.5,-2.5l11,0c0.276,0 0.5,0.224 0.5,0.5c0,0.276 -0.224,0.5 -0.5,0.5l-11,0c-0.827,0 -1.5,0.673 -1.5,1.5l0,13c0,0.827 0.673,1.5 1.5,1.5l13,0c0.827,0 1.5,-0.673 1.5,-1.5l0,-11c0,-0.276 0.224,-0.5 0.5,-0.5c0.276,0 0.5,0.224 0.5,0.5l0,11c0,1.379 -1.121,2.5 -2.5,2.5" style="fill-rule:nonzero;"></path> </g> </svg>